<?xml version="1.0" standalone="no"?>
<!DOCTYPE svg PUBLIC "-//W3C//DTD SVG 20010904//EN"
 "http://www.w3.org/TR/2001/REC-SVG-20010904/DTD/svg10.dtd">
<svg version="1.0" xmlns="http://www.w3.org/2000/svg"
 width="128.000000pt" height="128.000000pt" viewBox="0 0 128.000000 128.000000"
 preserveAspectRatio="xMidYMid meet">
<metadata>
Created by potrace 1.11, written by Peter Selinger 2001-2013
</metadata>
<g transform="translate(0.000000,128.000000) scale(0.100000,-0.100000)"
fill="#000000" stroke="none">
<path d="M182 1120 c-108 -9 -102 21 -102 -480 0 -406 1 -429 19 -451 l19 -24
504 -2 c335 -2 512 1 529 8 15 6 31 21 37 35 14 29 15 835 2 870 -5 12 -19 28
-30 34 -22 12 -849 20 -978 10z m269 -291 l107 -107 -116 -116 c-63 -64 -119
-116 -124 -116 -5 0 -25 16 -44 36 l-36 35 80 81 80 80 -80 80 -79 79 37 39
c44 46 28 55 175 -91z m429 -309 l0 -38 -157 1 -158 2 -3 37 -3 37 101 3 c55
2 128 1 160 0 l60 -4 0 -38z"/>
</g>
</svg>
